<svg width="33" height="33" viewBox="0 0 33 33" fill="none" xmlns="http://www.w3.org/2000/svg">
<g id="ph:basket">
<path id="Vector" d="M17.5312 15.4688V22.6875C17.5312 22.961 17.4226 23.2233 17.2292 23.4167C17.0358 23.6101 16.7735 23.7188 16.5 23.7188C16.2265 23.7188 15.9642 23.6101 15.7708 23.4167C15.5774 23.2233 15.4687 22.961 15.4687 22.6875V15.4688C15.4687 15.1953 15.5774 14.9329 15.7708 14.7396C15.9642 14.5462 16.2265 14.4375 16.5 14.4375C16.7735 14.4375 17.0358 14.5462 17.2292 14.7396C17.4226 14.9329 17.5312 15.1953 17.5312 15.4688ZM30.9194 12.647L29.1328 26.0545C29.0665 26.55 28.8226 27.0046 28.4463 27.3337C28.07 27.6629 27.587 27.8441 27.087 27.8438H5.91289C5.41297 27.8441 4.92995 27.6629 4.55365 27.3337C4.17735 27.0046 3.93339 26.55 3.86715 26.0545L2.07922 12.6483C2.04026 12.3568 2.06407 12.0604 2.14906 11.7789C2.23404 11.4974 2.37824 11.2373 2.57198 11.0161C2.76572 10.7949 3.00452 10.6177 3.27237 10.4963C3.54021 10.375 3.83091 10.3123 4.12496 10.3125H8.81328L15.7265 2.41442C15.8233 2.30469 15.9423 2.2168 16.0757 2.15661C16.209 2.09641 16.3537 2.06528 16.5 2.06528C16.6463 2.06528 16.7909 2.09641 16.9243 2.15661C17.0576 2.2168 17.1766 2.30469 17.2734 2.41442L24.1866 10.3125H28.875C29.1687 10.3127 29.459 10.3756 29.7264 10.497C29.9938 10.6185 30.2322 10.7956 30.4257 11.0167C30.6191 11.2377 30.7631 11.4975 30.848 11.7786C30.933 12.0598 30.9569 12.3559 30.9181 12.647H30.9194ZM11.5538 10.3125H21.4461L16.5 4.65997L11.5538 10.3125ZM28.875 12.375H4.12496L5.91289 25.7813H27.087L28.875 12.375ZM22.2801 15.3656L21.5582 22.5844C21.544 22.7195 21.5566 22.8562 21.5953 22.9864C21.634 23.1167 21.6981 23.238 21.7839 23.3435C21.8696 23.4489 21.9754 23.5363 22.0951 23.6007C22.2148 23.6651 22.346 23.7052 22.4812 23.7188C22.516 23.7207 22.5509 23.7207 22.5856 23.7188C22.8411 23.7184 23.0873 23.6233 23.2766 23.4519C23.4659 23.2804 23.5849 23.0448 23.6104 22.7906L24.3323 15.5719C24.3597 15.2997 24.2778 15.0279 24.1047 14.8161C23.9316 14.6043 23.6815 14.47 23.4093 14.4427C23.1372 14.4153 22.8653 14.4972 22.6536 14.6703C22.4418 14.8434 22.3075 15.0935 22.2801 15.3656ZM10.7198 15.3656C10.6925 15.0935 10.5581 14.8434 10.3464 14.6703C10.1346 14.4972 9.86273 14.4153 9.59059 14.4427C9.31845 14.47 9.06833 14.6043 8.89524 14.8161C8.72215 15.0279 8.64027 15.2997 8.66762 15.5719L9.38949 22.7906C9.41515 23.0459 9.53502 23.2824 9.72571 23.454C9.91639 23.6257 10.1642 23.72 10.4207 23.7188C10.4555 23.7207 10.4904 23.7207 10.5252 23.7188C10.6599 23.7052 10.7907 23.6653 10.91 23.6012C11.0293 23.5371 11.1348 23.4502 11.2205 23.3453C11.3062 23.2404 11.3704 23.1197 11.4095 22.9901C11.4485 22.8604 11.4617 22.7243 11.4481 22.5895L10.7198 15.3656Z" fill="black"/>
</g>
</svg>
