<svg width="21" height="21" viewBox="0 0 21 21" fill="none" xmlns="http://www.w3.org/2000/svg">
<g id="simple-line-icons:magnifier" clip-path="url(#clip0_44_355)">
<path id="Vector" d="M20.8082 19.8729L14.4317 13.4574C15.6201 12.034 16.3364 10.2027 16.3364 8.20311C16.3364 3.67269 12.6637 -1.52588e-05 8.1333 -1.52588e-05C3.60288 -1.52588e-05 -0.0698242 3.67269 -0.0698242 8.20311C-0.0698242 12.7335 3.60288 16.4062 8.1333 16.4062C10.1916 16.4062 12.0718 15.6463 13.5123 14.3935L19.8798 20.8011C20.1361 21.0574 20.5519 21.0574 20.8081 20.8011C21.0641 20.5449 21.0641 20.1295 20.8081 19.8729H20.8082ZM8.1333 15.1046C4.3218 15.1046 1.23185 12.0146 1.23185 8.20311C1.23185 4.39161 4.3218 1.30166 8.1333 1.30166C11.9448 1.30166 15.0348 4.39161 15.0348 8.20311C15.0348 12.0146 11.9448 15.1046 8.1333 15.1046Z" fill="black"/>
</g>
<defs>
<clipPath id="clip0_44_355">
<rect width="21" height="21" fill="white"/>
</clipPath>
</defs>
</svg>
