<svg width="188" height="39" viewBox="0 0 188 39" fill="none" xmlns="http://www.w3.org/2000/svg">
<g clip-path="url(#clip0_44_331)">
<rect width="39" height="39" rx="7.8" fill="white"/>
<rect x="1.95" y="1.95" width="35.1" height="35.1" rx="5.85" stroke="#DC2B2B" stroke-width="3.9"/>
<line x1="-0.150338" y1="37.5649" x2="38.8497" y2="1.68494" stroke="white" stroke-width="3.9"/>
<path d="M10.1253 10.9015H14.7609L19.6569 22.8464H19.8652L24.7612 10.9015H29.3968V28.68H25.7509V17.1084H25.6033L21.0024 28.5932H18.5197L13.9188 17.065H13.7712V28.68H10.1253V10.9015Z" fill="#DC2B2B"/>
</g>
<path d="M49.0227 7.72727H55.0909L61.5 23.3636H61.7727L68.1818 7.72727H74.25V31H69.4773V15.8523H69.2841L63.2614 30.8864H60.0114L53.9886 15.7955H53.7955V31H49.0227V7.72727ZM82.3153 31H77.0426L85.0767 7.72727H91.4176L99.4403 31H94.1676L88.3381 13.0455H88.1562L82.3153 31ZM81.9858 21.8523H94.4403V25.6932H81.9858V21.8523ZM117.685 7.72727V11.7841H107.162V31H102.241V7.72727H117.685ZM120.835 31V7.72727H125.756V17.3295H135.744V7.72727H140.653V31H135.744V21.3864H125.756V31H120.835ZM144.71 7.72727H149.619V22.3636H149.812L159.869 7.72727H164.176V31H159.256V16.3523H159.085L148.972 31H144.71V7.72727ZM167.355 11.7841V7.72727H186.469V11.7841H179.344V31H174.48V11.7841H167.355Z" fill="#DC2B2B"/>
<defs>
<clipPath id="clip0_44_331">
<rect width="39" height="39" rx="7.8" fill="white"/>
</clipPath>
</defs>
</svg>
